# xmcd
#
# Track frame offsets:
#   150
#   23304
#   49488
#   79371
#   96534
#   117986
#   146705
#   172568
#   199084
#   220901
#
# Disc length: 3086 seconds
#
# Revision: 0
# Processed by: cddbd v1.5.2PL0 Copyright (c) Steve Scherf et al.
# Submitted via: GXTranscoder 2.0.1939
#
DISCID=890c0c0a
DTITLE=Paul PERSONNE - à l'ouest (face B)
DYEAR=2011
DGENRE=Blues
TTITLE0=Longue absence
TTITLE1=Le bout d'la route
TTITLE2=La roue du temps
TTITLE3=Sweety
TTITLE4=C'est toi qui choisis
TTITLE5=J'ai essayé
TTITLE6=Disparue
TTITLE7=Cosmic chicken blues
TTITLE8=M.M.I
TTITLE9=Grenouilleinlove
EXTD=
EXTT0=
EXTT1=
EXTT2=
EXTT3=
EXTT4=
EXTT5=
EXTT6=
EXTT7=
EXTT8=
EXTT9=
PLAYORDER=
